<?xml version="1.0" encoding="utf-8"?>
<!-- Generator: Adobe Illustrator 16.0.3, SVG Export Plug-In . SVG Version: 6.00 Build 0)  -->
<!DOCTYPE svg PUBLIC "-//W3C//DTD SVG 1.1//EN" "http://www.w3.org/Graphics/SVG/1.1/DTD/svg11.dtd">
<svg version="1.1" id="Layer_1" xmlns="http://www.w3.org/2000/svg" xmlns:xlink="http://www.w3.org/1999/xlink" x="0px" y="0px"
	 width="128px" height="128px" viewBox="0 0 128 128" style="enable-background:new 0 0 128 128;" xml:space="preserve">
<style type="text/css">
<![CDATA[
	.st0{fill:#231F20;}
]]>
</style>
<g>
	<path class="st0" d="M112.766,14.742c-0.824-0.814-2.043-1.08-3.129-0.688c-0.857,0.311-21.077,7.648-27.322,11.896
		c-5.467,3.717-13.588,11.336-21.761,19.582c-2.192-1.107-5.457-2.463-8.341-2.463c-10.662,0-28.009,19.766-29.951,22.02
		c-0.562,0.652-0.645,1.592-0.203,2.332c0.366,0.613,1.024,0.975,1.718,0.975c0.143,0,0.287-0.016,0.431-0.047l18.502-4.078
		c-1.732,1.879-3.332,3.629-4.758,5.197l20.285,20.408c1.652-1.498,3.509-3.191,5.504-5.027l-4.159,18.873
		c-0.186,0.842,0.188,1.707,0.928,2.148c0.318,0.189,0.672,0.281,1.025,0.281c0.468,0,0.934-0.164,1.306-0.484
		c2.254-1.943,22.021-19.289,22.021-29.949c0-2.967-1.434-6.342-2.558-8.531c8.235-8.162,15.83-16.273,19.516-21.754
		c4.238-6.301,11.37-26.705,11.672-27.57C113.871,16.771,113.589,15.557,112.766,14.742z M82.86,38.404
		c3.676,0,6.666,2.99,6.666,6.666s-2.99,6.666-6.666,6.666s-6.666-2.99-6.666-6.666S79.185,38.404,82.86,38.404z"/>
	<path class="st0" d="M34.594,73.186c-1.969,2.189-3.235,3.621-3.49,3.908c-1.049,1.189-0.993,2.988,0.128,4.107l15.326,15.328
		c0.584,0.584,1.352,0.879,2.122,0.879c0.705,0,1.413-0.248,1.981-0.748c0.286-0.252,1.696-1.496,3.855-3.432L34.594,73.186z"/>
	<path class="st0" d="M27.77,89.41c-3.015,0-5.849,1.174-7.979,3.307c-3.941,3.941-5.225,16.715-5.441,19.234
		c-0.051,0.588,0.16,1.17,0.578,1.586c0.376,0.377,0.886,0.586,1.414,0.586c0.057,0,0.114-0.002,0.172-0.008
		c2.521-0.217,15.294-1.498,19.235-5.439c2.132-2.133,3.306-4.967,3.306-7.98c0-3.016-1.174-5.848-3.306-7.979
		C33.617,90.584,30.784,89.41,27.77,89.41z"/>
</g>
</svg>
